<mxfile host="Electron" modified="2024-04-12T07:47:52.171Z" agent="Mozilla/5.0 (X11; Linux x86_64) AppleWebKit/537.36 (KHTML, like Gecko) draw.io/24.1.0 Chrome/120.0.6099.109 Electron/28.1.0 Safari/537.36" etag="7pGTyrcQ84CbaZCCmjmq" version="24.1.0" type="device">
  <diagram name="Page-1" id="KxP2pHhRwir0VanfD8lo">
    <mxGraphModel dx="1362" dy="843" grid="0" gridSize="10" guides="0" tooltips="1" connect="1" arrows="1" fold="1" page="0" pageScale="1" pageWidth="1169" pageHeight="827" math="0" shadow="0">
      <root>
        <mxCell id="0" />
        <mxCell id="1" parent="0" />
        <mxCell id="zeHsuMDkd8p1UON3GbhE-48" value="Workflow" style="swimlane;childLayout=stackLayout;resizeParent=1;resizeParentMax=0;horizontal=1;startSize=20;horizontalStack=0;html=1;" vertex="1" parent="1">
          <mxGeometry x="80" y="40" width="870" height="820" as="geometry" />
        </mxCell>
        <mxCell id="zeHsuMDkd8p1UON3GbhE-49" value="Data" style="swimlane;startSize=20;horizontal=0;html=1;swimlaneLine=1;dashed=1;" vertex="1" parent="zeHsuMDkd8p1UON3GbhE-48">
          <mxGeometry y="20" width="870" height="220" as="geometry">
            <mxRectangle y="20" width="980" height="30" as="alternateBounds" />
          </mxGeometry>
        </mxCell>
        <mxCell id="zeHsuMDkd8p1UON3GbhE-15" value="3 Sentinel-2 images for&amp;nbsp;&lt;div&gt;ground truth validation&lt;/div&gt;&lt;div&gt;(2022-2023)&lt;/div&gt;" style="strokeWidth=2;html=1;shape=mxgraph.flowchart.multi-document;whiteSpace=wrap;" vertex="1" parent="zeHsuMDkd8p1UON3GbhE-49">
          <mxGeometry x="630" y="20" width="190" height="75" as="geometry" />
        </mxCell>
        <mxCell id="zeHsuMDkd8p1UON3GbhE-16" value="Ground Truth Dataset&lt;div&gt;&lt;br&gt;&lt;/div&gt;&lt;div&gt;n =&amp;nbsp; 196 points&lt;/div&gt;" style="shape=note;whiteSpace=wrap;html=1;backgroundOutline=1;darkOpacity=0.05;size=14;" vertex="1" parent="zeHsuMDkd8p1UON3GbhE-49">
          <mxGeometry x="505" y="20" width="80" height="95" as="geometry" />
        </mxCell>
        <mxCell id="zeHsuMDkd8p1UON3GbhE-8" value="Polygon Dataset&lt;div&gt;&lt;br&gt;&lt;/div&gt;&lt;div&gt;n = 7112 pixels&lt;/div&gt;" style="shape=note;whiteSpace=wrap;html=1;backgroundOutline=1;darkOpacity=0.05;size=14;" vertex="1" parent="zeHsuMDkd8p1UON3GbhE-49">
          <mxGeometry x="210" y="110" width="80" height="100" as="geometry" />
        </mxCell>
        <mxCell id="zeHsuMDkd8p1UON3GbhE-3" value="Polygon delineation &amp;amp; Pixel extraction" style="rounded=1;whiteSpace=wrap;html=1;" vertex="1" parent="zeHsuMDkd8p1UON3GbhE-49">
          <mxGeometry x="290" y="20" width="170" height="62.5" as="geometry" />
        </mxCell>
        <mxCell id="zeHsuMDkd8p1UON3GbhE-9" style="edgeStyle=orthogonalEdgeStyle;rounded=0;orthogonalLoop=1;jettySize=auto;html=1;exitX=0.5;exitY=1;exitDx=0;exitDy=0;entryX=0.5;entryY=0;entryDx=0;entryDy=0;entryPerimeter=0;" edge="1" parent="zeHsuMDkd8p1UON3GbhE-49" source="zeHsuMDkd8p1UON3GbhE-3" target="zeHsuMDkd8p1UON3GbhE-8">
          <mxGeometry relative="1" as="geometry">
            <Array as="points">
              <mxPoint x="375" y="95" />
              <mxPoint x="250" y="95" />
            </Array>
          </mxGeometry>
        </mxCell>
        <mxCell id="zeHsuMDkd8p1UON3GbhE-2" value="12 Sentinel-2 images&amp;nbsp;&lt;div&gt;(6 in 2017, 6 in 2023)&lt;/div&gt;" style="strokeWidth=2;html=1;shape=mxgraph.flowchart.multi-document;whiteSpace=wrap;" vertex="1" parent="zeHsuMDkd8p1UON3GbhE-49">
          <mxGeometry x="60" y="16.25" width="200" height="70" as="geometry" />
        </mxCell>
        <mxCell id="zeHsuMDkd8p1UON3GbhE-1" value="" style="edgeStyle=orthogonalEdgeStyle;rounded=0;orthogonalLoop=1;jettySize=auto;html=1;entryX=0;entryY=0.5;entryDx=0;entryDy=0;" edge="1" parent="zeHsuMDkd8p1UON3GbhE-49" source="zeHsuMDkd8p1UON3GbhE-2" target="zeHsuMDkd8p1UON3GbhE-3">
          <mxGeometry relative="1" as="geometry">
            <mxPoint x="310" y="65" as="targetPoint" />
          </mxGeometry>
        </mxCell>
        <mxCell id="zeHsuMDkd8p1UON3GbhE-44" value="" style="shape=waypoint;sketch=0;fillStyle=solid;size=6;pointerEvents=1;points=[];fillColor=none;resizable=0;rotatable=0;perimeter=centerPerimeter;snapToPoint=1;" vertex="1" parent="zeHsuMDkd8p1UON3GbhE-49">
          <mxGeometry x="705" y="160" width="20" height="20" as="geometry" />
        </mxCell>
        <mxCell id="zeHsuMDkd8p1UON3GbhE-43" style="edgeStyle=orthogonalEdgeStyle;rounded=0;orthogonalLoop=1;jettySize=auto;html=1;exitX=0.5;exitY=0.88;exitDx=0;exitDy=0;exitPerimeter=0;endArrow=none;endFill=0;" edge="1" parent="zeHsuMDkd8p1UON3GbhE-49" source="zeHsuMDkd8p1UON3GbhE-15" target="zeHsuMDkd8p1UON3GbhE-44">
          <mxGeometry relative="1" as="geometry">
            <mxPoint x="800" y="310" as="targetPoint" />
            <Array as="points">
              <mxPoint x="715" y="86" />
            </Array>
          </mxGeometry>
        </mxCell>
        <mxCell id="zeHsuMDkd8p1UON3GbhE-42" style="edgeStyle=orthogonalEdgeStyle;rounded=0;orthogonalLoop=1;jettySize=auto;html=1;exitX=0.5;exitY=1;exitDx=0;exitDy=0;exitPerimeter=0;entryX=0.05;entryY=0.5;entryDx=0;entryDy=0;entryPerimeter=0;endArrow=none;endFill=0;" edge="1" parent="zeHsuMDkd8p1UON3GbhE-49" source="zeHsuMDkd8p1UON3GbhE-16" target="zeHsuMDkd8p1UON3GbhE-44">
          <mxGeometry relative="1" as="geometry">
            <mxPoint x="700" y="310" as="targetPoint" />
            <Array as="points">
              <mxPoint x="545" y="170" />
            </Array>
          </mxGeometry>
        </mxCell>
        <mxCell id="zeHsuMDkd8p1UON3GbhE-50" value="Training" style="swimlane;startSize=20;horizontal=0;html=1;dashed=1;dashPattern=12 12;" vertex="1" parent="zeHsuMDkd8p1UON3GbhE-48">
          <mxGeometry y="240" width="870" height="240" as="geometry">
            <mxRectangle y="140" width="970" height="30" as="alternateBounds" />
          </mxGeometry>
        </mxCell>
        <mxCell id="zeHsuMDkd8p1UON3GbhE-11" value="Random Forest training" style="rounded=1;whiteSpace=wrap;html=1;" vertex="1" parent="zeHsuMDkd8p1UON3GbhE-50">
          <mxGeometry x="355" y="20" width="160" height="60" as="geometry" />
        </mxCell>
        <mxCell id="zeHsuMDkd8p1UON3GbhE-13" value="Trained Random Forest Algorithm" style="shape=parallelogram;perimeter=parallelogramPerimeter;whiteSpace=wrap;html=1;fixedSize=1;" vertex="1" parent="zeHsuMDkd8p1UON3GbhE-50">
          <mxGeometry x="325" y="100" width="220" height="130" as="geometry" />
        </mxCell>
        <mxCell id="zeHsuMDkd8p1UON3GbhE-28" style="edgeStyle=orthogonalEdgeStyle;rounded=0;orthogonalLoop=1;jettySize=auto;html=1;exitX=0.5;exitY=1;exitDx=0;exitDy=0;" edge="1" parent="zeHsuMDkd8p1UON3GbhE-50" source="zeHsuMDkd8p1UON3GbhE-11" target="zeHsuMDkd8p1UON3GbhE-13">
          <mxGeometry relative="1" as="geometry" />
        </mxCell>
        <mxCell id="zeHsuMDkd8p1UON3GbhE-76" value="" style="shape=waypoint;sketch=0;fillStyle=solid;size=6;pointerEvents=1;points=[];fillColor=none;resizable=0;rotatable=0;perimeter=centerPerimeter;snapToPoint=1;" vertex="1" parent="zeHsuMDkd8p1UON3GbhE-50">
          <mxGeometry x="150" y="155" width="20" height="20" as="geometry" />
        </mxCell>
        <mxCell id="zeHsuMDkd8p1UON3GbhE-80" style="edgeStyle=orthogonalEdgeStyle;rounded=0;orthogonalLoop=1;jettySize=auto;html=1;entryX=0.6;entryY=0.95;entryDx=0;entryDy=0;entryPerimeter=0;endArrow=none;endFill=0;" edge="1" parent="zeHsuMDkd8p1UON3GbhE-50" target="zeHsuMDkd8p1UON3GbhE-76">
          <mxGeometry relative="1" as="geometry">
            <mxPoint x="335.0017683465959" y="169.9885057471265" as="sourcePoint" />
            <Array as="points">
              <mxPoint x="335" y="165" />
            </Array>
          </mxGeometry>
        </mxCell>
        <mxCell id="zeHsuMDkd8p1UON3GbhE-51" value="Validation" style="swimlane;startSize=20;horizontal=0;html=1;dashed=1;" vertex="1" parent="zeHsuMDkd8p1UON3GbhE-48">
          <mxGeometry y="480" width="870" height="190" as="geometry" />
        </mxCell>
        <mxCell id="zeHsuMDkd8p1UON3GbhE-14" value="Random Forest validation on polygon dataset&lt;div&gt;&lt;br&gt;&lt;/div&gt;&lt;div&gt;Accuracy = 99.29%&lt;/div&gt;" style="rounded=1;whiteSpace=wrap;html=1;" vertex="1" parent="zeHsuMDkd8p1UON3GbhE-51">
          <mxGeometry x="60" y="27.5" width="190" height="70" as="geometry" />
        </mxCell>
        <mxCell id="zeHsuMDkd8p1UON3GbhE-17" value="Random Forest validation on Ground Truth dataset &amp;amp; detection threshold estimation&lt;div&gt;&lt;br&gt;&lt;/div&gt;&lt;div&gt;Accuracy = 78%&lt;/div&gt;" style="rounded=1;whiteSpace=wrap;html=1;" vertex="1" parent="zeHsuMDkd8p1UON3GbhE-51">
          <mxGeometry x="617.5" y="22.5" width="195" height="75" as="geometry" />
        </mxCell>
        <mxCell id="zeHsuMDkd8p1UON3GbhE-27" value="Trained &amp;amp; Validated Random Forest Algorithm" style="shape=parallelogram;perimeter=parallelogramPerimeter;whiteSpace=wrap;html=1;fixedSize=1;" vertex="1" parent="zeHsuMDkd8p1UON3GbhE-51">
          <mxGeometry x="325" y="40" width="220" height="130" as="geometry" />
        </mxCell>
        <mxCell id="zeHsuMDkd8p1UON3GbhE-84" value="" style="shape=waypoint;sketch=0;fillStyle=solid;size=6;pointerEvents=1;points=[];fillColor=none;resizable=0;rotatable=0;perimeter=centerPerimeter;snapToPoint=1;" vertex="1" parent="zeHsuMDkd8p1UON3GbhE-51">
          <mxGeometry x="425" y="7.5" width="20" height="20" as="geometry" />
        </mxCell>
        <mxCell id="zeHsuMDkd8p1UON3GbhE-86" style="edgeStyle=orthogonalEdgeStyle;rounded=0;orthogonalLoop=1;jettySize=auto;html=1;exitX=1;exitY=0.5;exitDx=0;exitDy=0;entryX=0.214;entryY=0.575;entryDx=0;entryDy=0;entryPerimeter=0;endArrow=none;endFill=0;" edge="1" parent="zeHsuMDkd8p1UON3GbhE-51" source="zeHsuMDkd8p1UON3GbhE-14" target="zeHsuMDkd8p1UON3GbhE-84">
          <mxGeometry relative="1" as="geometry">
            <Array as="points">
              <mxPoint x="310" y="63" />
              <mxPoint x="310" y="17" />
            </Array>
          </mxGeometry>
        </mxCell>
        <mxCell id="zeHsuMDkd8p1UON3GbhE-87" style="edgeStyle=orthogonalEdgeStyle;rounded=0;orthogonalLoop=1;jettySize=auto;html=1;exitX=0;exitY=0.5;exitDx=0;exitDy=0;entryX=0.731;entryY=0.541;entryDx=0;entryDy=0;entryPerimeter=0;endArrow=none;endFill=0;" edge="1" parent="zeHsuMDkd8p1UON3GbhE-51" source="zeHsuMDkd8p1UON3GbhE-17" target="zeHsuMDkd8p1UON3GbhE-84">
          <mxGeometry relative="1" as="geometry">
            <Array as="points">
              <mxPoint x="570" y="60" />
              <mxPoint x="570" y="17" />
            </Array>
          </mxGeometry>
        </mxCell>
        <mxCell id="zeHsuMDkd8p1UON3GbhE-6" style="edgeStyle=orthogonalEdgeStyle;rounded=0;orthogonalLoop=1;jettySize=auto;html=1;exitX=0;exitY=0;exitDx=80;exitDy=57;exitPerimeter=0;endArrow=classic;endFill=1;entryX=0.5;entryY=0;entryDx=0;entryDy=0;" edge="1" parent="zeHsuMDkd8p1UON3GbhE-48" source="zeHsuMDkd8p1UON3GbhE-8" target="zeHsuMDkd8p1UON3GbhE-11">
          <mxGeometry relative="1" as="geometry">
            <mxPoint x="450" y="220" as="targetPoint" />
            <Array as="points">
              <mxPoint x="435" y="187" />
            </Array>
          </mxGeometry>
        </mxCell>
        <mxCell id="zeHsuMDkd8p1UON3GbhE-7" value="Training part (80%)" style="edgeLabel;html=1;align=center;verticalAlign=middle;resizable=0;points=[];" vertex="1" connectable="0" parent="zeHsuMDkd8p1UON3GbhE-6">
          <mxGeometry x="0.0456" y="1" relative="1" as="geometry">
            <mxPoint as="offset" />
          </mxGeometry>
        </mxCell>
        <mxCell id="zeHsuMDkd8p1UON3GbhE-35" value="" style="edgeStyle=orthogonalEdgeStyle;rounded=0;orthogonalLoop=1;jettySize=auto;html=1;exitX=0.5;exitY=1;exitDx=0;exitDy=0;entryDx=0;entryDy=0;entryX=0.5;entryY=0;" edge="1" parent="zeHsuMDkd8p1UON3GbhE-48" source="zeHsuMDkd8p1UON3GbhE-13" target="zeHsuMDkd8p1UON3GbhE-27">
          <mxGeometry relative="1" as="geometry">
            <mxPoint x="490" y="500" as="sourcePoint" />
            <mxPoint x="490" y="610" as="targetPoint" />
          </mxGeometry>
        </mxCell>
        <mxCell id="zeHsuMDkd8p1UON3GbhE-52" value="Treatment" style="swimlane;startSize=20;horizontal=0;html=1;dashed=1;dashPattern=12 12;" vertex="1" parent="zeHsuMDkd8p1UON3GbhE-48">
          <mxGeometry y="670" width="870" height="150" as="geometry" />
        </mxCell>
        <mxCell id="zeHsuMDkd8p1UON3GbhE-19" value="187 Sentinel-2 images&lt;div&gt;&amp;nbsp;(from 2017 to 2022)&lt;/div&gt;" style="strokeWidth=2;html=1;shape=mxgraph.flowchart.multi-document;whiteSpace=wrap;" vertex="1" parent="zeHsuMDkd8p1UON3GbhE-52">
          <mxGeometry x="50" y="20" width="250" height="110" as="geometry" />
        </mxCell>
        <mxCell id="zeHsuMDkd8p1UON3GbhE-20" value="Classified seagrass maps&lt;div&gt;&amp;nbsp;(from 2017 to 2022)&lt;/div&gt;" style="strokeWidth=2;html=1;shape=mxgraph.flowchart.multi-document;whiteSpace=wrap;" vertex="1" parent="zeHsuMDkd8p1UON3GbhE-52">
          <mxGeometry x="590" y="20" width="250" height="110" as="geometry" />
        </mxCell>
        <mxCell id="zeHsuMDkd8p1UON3GbhE-89" style="edgeStyle=orthogonalEdgeStyle;rounded=0;orthogonalLoop=1;jettySize=auto;html=1;entryX=0;entryY=0.5;entryDx=0;entryDy=0;entryPerimeter=0;" edge="1" parent="zeHsuMDkd8p1UON3GbhE-52" source="zeHsuMDkd8p1UON3GbhE-90" target="zeHsuMDkd8p1UON3GbhE-20">
          <mxGeometry relative="1" as="geometry" />
        </mxCell>
        <mxCell id="zeHsuMDkd8p1UON3GbhE-90" value="" style="shape=waypoint;sketch=0;fillStyle=solid;size=6;pointerEvents=1;points=[];fillColor=none;resizable=0;rotatable=0;perimeter=centerPerimeter;snapToPoint=1;" vertex="1" parent="zeHsuMDkd8p1UON3GbhE-52">
          <mxGeometry x="425" y="65" width="20" height="20" as="geometry" />
        </mxCell>
        <mxCell id="zeHsuMDkd8p1UON3GbhE-91" value="" style="edgeStyle=orthogonalEdgeStyle;rounded=0;orthogonalLoop=1;jettySize=auto;html=1;entryDx=0;entryDy=0;entryPerimeter=0;endArrow=none;endFill=0;" edge="1" parent="zeHsuMDkd8p1UON3GbhE-52" source="zeHsuMDkd8p1UON3GbhE-19" target="zeHsuMDkd8p1UON3GbhE-90">
          <mxGeometry relative="1" as="geometry">
            <mxPoint x="380" y="785" as="sourcePoint" />
            <mxPoint x="670" y="785" as="targetPoint" />
          </mxGeometry>
        </mxCell>
        <mxCell id="zeHsuMDkd8p1UON3GbhE-77" style="edgeStyle=orthogonalEdgeStyle;rounded=0;orthogonalLoop=1;jettySize=auto;html=1;entryX=0.524;entryY=0.007;entryDx=0;entryDy=0;entryPerimeter=0;exitX=0;exitY=0.5;exitDx=0;exitDy=0;exitPerimeter=0;" edge="1" parent="zeHsuMDkd8p1UON3GbhE-48" source="zeHsuMDkd8p1UON3GbhE-8" target="zeHsuMDkd8p1UON3GbhE-14">
          <mxGeometry relative="1" as="geometry">
            <mxPoint x="160" y="370" as="targetPoint" />
          </mxGeometry>
        </mxCell>
        <mxCell id="zeHsuMDkd8p1UON3GbhE-93" value="Validation part (20%)" style="edgeLabel;html=1;align=center;verticalAlign=middle;resizable=0;points=[];" vertex="1" connectable="0" parent="zeHsuMDkd8p1UON3GbhE-77">
          <mxGeometry x="-0.0888" relative="1" as="geometry">
            <mxPoint as="offset" />
          </mxGeometry>
        </mxCell>
        <mxCell id="zeHsuMDkd8p1UON3GbhE-92" style="edgeStyle=orthogonalEdgeStyle;rounded=0;orthogonalLoop=1;jettySize=auto;html=1;exitX=0.5;exitY=1;exitDx=0;exitDy=0;entryX=0.55;entryY=0.3;entryDx=0;entryDy=0;entryPerimeter=0;endArrow=none;endFill=0;" edge="1" parent="zeHsuMDkd8p1UON3GbhE-48" source="zeHsuMDkd8p1UON3GbhE-27" target="zeHsuMDkd8p1UON3GbhE-90">
          <mxGeometry relative="1" as="geometry" />
        </mxCell>
        <mxCell id="zeHsuMDkd8p1UON3GbhE-58" style="edgeStyle=orthogonalEdgeStyle;rounded=0;orthogonalLoop=1;jettySize=auto;html=1;entryX=0.5;entryY=0;entryDx=0;entryDy=0;" edge="1" parent="1" source="zeHsuMDkd8p1UON3GbhE-46" target="zeHsuMDkd8p1UON3GbhE-17">
          <mxGeometry relative="1" as="geometry" />
        </mxCell>
        <mxCell id="zeHsuMDkd8p1UON3GbhE-63" value="" style="edgeStyle=orthogonalEdgeStyle;rounded=0;orthogonalLoop=1;jettySize=auto;html=1;entryDx=0;entryDy=0;exitX=0.843;exitY=1.019;exitDx=0;exitDy=0;exitPerimeter=0;endArrow=none;endFill=0;" edge="1" parent="1" source="zeHsuMDkd8p1UON3GbhE-44" target="zeHsuMDkd8p1UON3GbhE-46">
          <mxGeometry relative="1" as="geometry">
            <mxPoint x="795" y="260" as="sourcePoint" />
            <mxPoint x="795" y="543" as="targetPoint" />
            <Array as="points">
              <mxPoint x="795" y="230" />
            </Array>
          </mxGeometry>
        </mxCell>
        <mxCell id="zeHsuMDkd8p1UON3GbhE-46" value="" style="shape=waypoint;sketch=0;fillStyle=solid;size=6;pointerEvents=1;points=[];fillColor=none;resizable=0;rotatable=0;perimeter=centerPerimeter;snapToPoint=1;" vertex="1" parent="1">
          <mxGeometry x="785" y="435" width="20" height="20" as="geometry" />
        </mxCell>
        <mxCell id="zeHsuMDkd8p1UON3GbhE-47" style="edgeStyle=orthogonalEdgeStyle;rounded=0;orthogonalLoop=1;jettySize=auto;html=1;exitX=1;exitY=0.5;exitDx=0;exitDy=0;endArrow=none;endFill=0;" edge="1" parent="1" source="zeHsuMDkd8p1UON3GbhE-13" target="zeHsuMDkd8p1UON3GbhE-46">
          <mxGeometry relative="1" as="geometry" />
        </mxCell>
      </root>
    </mxGraphModel>
  </diagram>
</mxfile>
